<svg width="1025" height="459" viewBox="0 0 1025 459" fill="none" xmlns="http://www.w3.org/2000/svg">
<rect width="1025" height="459" fill="#F5F5F5"/>
<path d="M524 192C495.931 186.018 468.782 174.466 443.778 160.556C401.705 137.15 359.311 101.546 341.444 55.2778C329.608 24.6254 354.2 8.78164 380.556 3.22222C385.922 2.09032 392.901 0.899371 398.222 2.88889C413.282 8.51977 410.927 27.6563 406.556 39.4444C394.286 72.5277 353.651 95.3668 353.444 132.889C353.237 170.661 414.954 134.071 428.111 126.667C460.552 108.411 493.487 92.7402 528.667 80.4444C550.876 72.682 573.903 66.2724 595.333 56.4444C598.996 54.7647 606.519 52.5843 609 49C611.56 45.3022 601.072 53.2772 597.333 55.7778C542.557 92.4186 488.871 131.005 435.556 169.722C324.923 250.064 221.068 338.621 114 423.5C99.5573 434.95 84.3788 445.497 70 457" stroke="black" stroke-width="3" stroke-linecap="round"/>
<path d="M535.206 433.606C457.773 431.923 380.851 420.173 305.016 404.967C225.257 388.975 145.808 367.221 73.142 329.882C49.2189 317.589 25.931 303.6 8.52522 282.713C6.86933 280.726 2.38843 271.202 2.38843 276.697C2.38843 294.243 3.81629 314.11 16.3466 327.476C36.0503 348.493 59.4591 353.467 87.8221 353.467C197.1 353.467 304.424 348.085 412.952 333.251C580.399 310.364 746.099 288.489 915.326 288.489C951.064 288.489 986.801 288.489 1022.54 288.489" stroke="black" stroke-width="3" stroke-linecap="round"/>
</svg>
